<?xml version="1.0" encoding="UTF-8"?>
<!-- Generator: Adobe Illustrator 27.2.0, SVG Export Plug-In . SVG Version: 6.00 Build 0)  -->
<svg xmlns="http://www.w3.org/2000/svg" xmlns:xlink="http://www.w3.org/1999/xlink" version="1.1" id="Capa_1" x="0px" y="0px" viewBox="0 0 511.948 511.948" style="enable-background:new 0 0 511.948 511.948;" xml:space="preserve" width="512" height="512">
<g>
	<path style="fill:#33CCCC;" d="M328.374,383.465l38.264-52.27c5.652-7.575-0.686-18.543-10.065-17.433l-64.399,7.003   l-23.051-52.277l16.926-16.455c11.097-10.788,17.413-25.852,17.328-41.329l-0.168-30.357V11c-0.541-14.579-21.464-14.568-22,0   v169.407l0.168,30.418c0.053,9.525-3.834,18.795-10.663,25.434l-14.729,14.318l-14.604-14.243   c-6.751-6.584-10.623-15.769-10.623-25.199V11c-0.541-14.579-21.464-14.568-22,0v200.135c0,15.325,6.292,30.25,17.263,40.949   l16.807,16.392l-23.056,52.289l-64.399-7.003c-4.331-0.47-8.536,1.661-10.715,5.436c-2.179,3.775-1.924,8.48,0.65,11.997   l38.264,52.27l-38.264,52.27c-2.575,3.517-2.83,8.223-0.65,11.997c2.179,3.774,6.38,5.908,10.715,5.436l64.399-7.003l26.135,59.272   c3.735,8.682,16.397,8.679,20.13,0l26.135-59.272l64.399,7.003c4.331,0.472,8.536-1.66,10.715-5.436   c2.179-3.775,1.924-8.48-0.65-11.997L328.374,383.465z M286.547,423.424c-4.769-0.521-9.32,2.11-11.254,6.498l-19.319,43.814   l-19.319-43.814c-1.922-4.397-6.553-7.027-11.254-6.498l-47.603,5.176l28.285-38.637c2.832-3.869,2.832-9.126,0-12.995   l-28.285-38.638l47.603,5.177c4.761,0.515,9.319-2.11,11.254-6.497l19.319-43.814l19.319,43.814   c1.935,4.388,6.498,7.015,11.254,6.497l47.603-5.177l-28.285,38.638c-2.832,3.869-2.832,9.126,0,12.995L334.15,428.6   L286.547,423.424z"/>
	<path d="M391.575,0H353.76H158.188h-37.815c-14.579,0.541-14.568,21.464,0,22h26.815v117.089c0,3.666,1.827,7.091,4.871,9.134   l97.74,65.587c3.706,2.486,8.547,2.488,12.255,0.002l97.831-65.587c3.046-2.042,4.875-5.469,4.875-9.137V22h26.815   C406.154,21.459,406.143,0.536,391.575,0z M342.76,133.22l-86.828,58.21l-86.743-58.208V22H342.76V133.22z"/>
</g>















</svg>
