<?xml version="1.0" encoding="iso-8859-1"?>
<!-- Generator: Adobe Illustrator 26.5.3, SVG Export Plug-In . SVG Version: 6.00 Build 0)  -->
<svg version="1.1" id="Capa_1" xmlns="http://www.w3.org/2000/svg" xmlns:xlink="http://www.w3.org/1999/xlink" x="0px" y="0px"
	 viewBox="0 0 512.012 512.012" style="enable-background:new 0 0 512.012 512.012;" xml:space="preserve">
<g>
	<g>
		<path style="fill:#33CCCC;" d="M139.517,129.758c-18.485,0-33.524,15.039-33.524,33.524c0,18.486,15.039,33.525,33.524,33.525
			c18.486,0,33.525-15.039,33.525-33.525C173.042,144.797,158.003,129.758,139.517,129.758z M139.517,174.808
			c-6.354,0-11.524-5.17-11.524-11.525c0-6.354,5.17-11.524,11.524-11.524c6.355,0,11.525,5.17,11.525,11.524
			C151.042,169.638,145.872,174.808,139.517,174.808z"/>
		<path style="fill:#33CCCC;" d="M268.704,0.005c-18.486,0-33.525,15.039-33.525,33.524c0,18.486,15.039,33.525,33.525,33.525
			s33.525-15.039,33.525-33.525C302.229,15.044,287.19,0.005,268.704,0.005z M268.704,45.055c-6.355,0-11.525-5.17-11.525-11.525
			c0-6.354,5.17-11.524,11.525-11.524s11.525,5.17,11.525,11.524C280.229,39.885,275.059,45.055,268.704,45.055z"/>
		<path style="fill:#33CCCC;" d="M171.518,30.684c-3.988-3.988-9.289-6.185-14.929-6.185c-5.639,0-10.94,2.196-14.928,6.184
			l-16.813,16.813c-3.988,3.987-6.184,9.288-6.184,14.928s2.196,10.94,6.183,14.928l16.814,16.813
			c4.116,4.115,9.521,6.173,14.928,6.173c5.406,0,10.812-2.058,14.927-6.173c0,0,0,0,0,0l16.813-16.813
			c3.988-3.987,6.184-9.288,6.184-14.928s-2.196-10.94-6.183-14.928L171.518,30.684z M156.59,77.981l-15.557-15.557l15.556-15.557
			l15.557,15.557L156.59,77.981z"/>
		<path style="fill:#33CCCC;" d="M508.264,349.22c-5.941-14.79-18.125-25.827-33.429-30.281l-40.747-11.86
			c-0.85-2.851-2.031-5.649-3.583-8.335c-1.551-2.686-3.384-5.108-5.428-7.27l10.103-41.218c3.794-15.479,0.328-31.55-9.509-44.09
			c-9.838-12.54-24.621-19.732-40.56-19.732s-30.722,7.192-40.56,19.732c-9.837,12.54-13.304,28.61-9.509,44.09l7.343,29.96
			l21.367-5.236l-7.343-29.96c-2.175-8.874-0.188-18.086,5.451-25.274c5.64-7.188,14.114-11.312,23.25-11.312
			s17.611,4.123,23.25,11.312c5.639,7.188,7.626,16.4,5.451,25.274l-8.63,35.211c-9.154-2.02-19.058-0.765-27.797,4.28
			l-15.526,8.964l11,19.053l15.526-8.964c8.063-4.654,18.411-1.883,23.067,6.181c4.656,8.063,1.883,18.411-6.181,23.067
			l-15.526,8.964l11,19.053l15.527-8.964c8.739-5.046,14.777-12.996,17.605-21.933l34.808,10.131
			c8.772,2.554,15.757,8.881,19.163,17.358c3.405,8.478,2.739,17.879-1.83,25.791c-4.568,7.912-12.375,13.19-21.42,14.479
			c-9.048,1.287-18.017-1.596-24.615-7.916l-22.274-21.339l-15.22,15.887l22.274,21.339c9.707,9.299,22.359,14.336,35.55,14.335
			c2.449,0,4.918-0.174,7.39-0.525c15.778-2.25,29.398-11.457,37.367-25.26C513.042,380.408,514.205,364.009,508.264,349.22z"/>
	</g>
	<g>
		<path d="M56.001,194.309c0,6.075,4.925,11,11,11s11-4.925,11-11c0-46.26-22.698-89.673-60.717-116.131
			c-4.987-3.469-11.843-2.24-15.312,2.746c-3.47,4.986-2.241,11.842,2.746,15.312C36.829,118.582,56.001,155.246,56.001,194.309z"/>
		<path d="M219.302,162.332c6.075,0,11-4.925,11-11c0-14.03,2.407-27.762,7.155-40.815c2.077-5.709-0.868-12.021-6.577-14.097
			c-5.709-2.079-12.021,0.867-14.098,6.577c-5.627,15.47-8.48,31.732-8.48,48.335C208.302,157.408,213.226,162.332,219.302,162.332z
			"/>
		<path d="M72.43,77.545c0.995,5.283,5.611,8.967,10.798,8.967c0.675,0,1.36-0.062,2.047-0.191c5.97-1.124,9.899-6.875,8.775-12.846
			C89.129,47.33,76.954,23.147,58.842,3.541c-4.123-4.464-11.081-4.738-15.544-0.616c-4.462,4.123-4.738,11.082-0.616,15.544
			C57.987,35.037,68.274,55.465,72.43,77.545z"/>
		<path d="M470.504,459.652L311.155,183.65c-1.459-2.526-3.861-4.37-6.679-5.125c-2.82-0.756-5.822-0.36-8.347,1.099l-10.234,5.909
			c4.831-36.109,24.073-71.191,50.089-89.295c4.986-3.471,6.216-10.326,2.746-15.312c-3.47-4.987-10.326-6.215-15.312-2.746
			c-17.998,12.525-33.329,31.319-44.334,54.352c-9.954,20.832-15.689,44.234-16.32,66.357l-28.735,16.59
			c-4.239,2.448-6.227,7.289-5.254,11.83H22.952c-6.075,0-11,4.925-11,11v262.698c0,6.075,4.925,11,11,11h294.797
			c6.075,0,11-4.925,11-11v-99.466l60.602,104.966c2.038,3.529,5.735,5.502,9.537,5.502c1.866,0,3.758-0.476,5.49-1.476
			l62.101-35.854c2.526-1.459,4.37-3.861,5.125-6.68C472.358,465.181,471.963,462.178,470.504,459.652z M131.464,490.005H33.952
			V249.307h97.512V490.005z M187.237,490.005h-33.772V249.307h33.772V490.005z M306.749,490.005h-97.512V249.307h31.621
			l65.891,114.127V490.005z M309.286,323.828l-54.732-94.798l43.047-24.854l54.732,94.798L309.286,323.828z M320.286,342.881
			l43.047-24.854l16.886,29.248l-43.048,24.854L320.286,342.881z M402.904,485.979l-54.731-94.798l43.048-24.854l54.732,94.798
			L402.904,485.979z"/>
	</g>
</g>
<g>
</g>
<g>
</g>
<g>
</g>
<g>
</g>
<g>
</g>
<g>
</g>
<g>
</g>
<g>
</g>
<g>
</g>
<g>
</g>
<g>
</g>
<g>
</g>
<g>
</g>
<g>
</g>
<g>
</g>
</svg>
